<?xml version="1.0" encoding="UTF-8"?>
<svg width="91px" height="28px" viewBox="0 0 91 28" version="1.1" xmlns="http://www.w3.org/2000/svg" xmlns:xlink="http://www.w3.org/1999/xlink">
    <!-- Generator: Sketch 51.2 (57519) - http://www.bohemiancoding.com/sketch -->
    <title>logo</title>
    <desc>Created with Sketch.</desc>
    <defs></defs>
    <g id="FINAL" stroke="none" stroke-width="1" fill="none" fill-rule="evenodd">
        <g id="Details-Copy-2" transform="translate(-105.000000, -3683.000000)" fill="#746F6F">
            <g id="logo" transform="translate(105.000000, 3683.000000)">
                <path d="M15.165752,10.795024 L10.5191231,10.795024 C10.3069415,10.795024 10.146226,10.5937981 10.183076,10.3742257 L10.799245,6.70492725 C10.8280437,6.53356321 10.9697458,6.40871598 11.135354,6.40871598 L18.2835707,6.40871598 C19.8478683,6.40871598 21.1864828,5.22907557 21.4584915,3.61087592 L21.9947053,0.420798268 C22.0316172,0.201290946 21.8708398,0 21.6586582,0 L8.43520977,0 C6.24489595,0 4.37068691,1.65189994 3.99023399,3.91775678 L2.6425153,11.944217 C2.18179754,14.6880585 4.19114385,17.2037399 6.84347603,17.2037399 L11.504721,17.2037399 C11.7169026,17.2037399 11.87768,17.4050309 11.8407681,17.6245382 L11.2238559,21.2950727 C11.1951191,21.4663717 11.053417,21.591284 10.8878088,21.591284 L3.71636735,21.591284 C2.15206982,21.591284 0.813517175,22.7708594 0.541508514,24.389059 L0.00529471888,27.5791367 C-0.0316172033,27.7987091 0.129160229,28 0.341341849,28 L13.572346,28 C15.7623502,28 17.6363734,26.3485555 18.0171979,24.083089 L19.3665888,16.0553927 C19.827864,13.3112909 17.8184557,10.795024 15.165752,10.795024" id="Fill-1"></path>
                <path d="M60.1750645,27.7038786 L61.8701906,17.499073 C61.8986467,17.3277883 62.0386629,17.2029515 62.2022395,17.2029515 L68.6861887,17.2029515 C68.8500101,17.2029515 68.9902099,17.0779196 69.0187272,16.9064398 L69.9645096,11.2155347 C70.0009824,10.9960457 69.8421178,10.7947065 69.6324607,10.7947065 L63.3858292,10.7947065 C63.1761109,10.7947065 63.0173075,10.5934324 63.0537803,10.3739435 L63.6633525,6.7043014 C63.6917474,6.53301674 63.8317636,6.40817996 63.9954014,6.40817996 L75.6261085,6.40817996 C75.8358268,6.40817996 75.9946913,6.60945407 75.9582186,6.82894303 L72.5114213,27.5792369 C72.4749486,27.7987259 72.6338131,28 72.8434702,28 L79.3492052,28 C79.5127818,28 79.652798,27.8751632 79.6812541,27.7038786 L83.1694809,6.7043014 C83.197937,6.53301674 83.3379532,6.40817996 83.501591,6.40817996 L87.3278028,6.40817996 C88.8734885,6.40817996 90.1961153,5.22870326 90.4648876,3.61063896 L90.9947828,0.420763072 C91.0311944,0.20127411 90.872391,0 90.6626727,0 L57.8692646,0 C57.7056268,0 57.5656106,0.124836787 57.5371545,0.296121445 L53.0052317,27.5792369 C52.968759,27.7987259 53.1276235,28 53.3372806,28 L59.8430156,28 C60.0065922,28 60.1466084,27.8751632 60.1750645,27.7038786" id="Fill-3"></path>
                <path d="M46.6486521,0.296126261 L42.0053454,27.579165 C41.9680389,27.7986576 42.1307453,28 42.345618,28 L49.0111231,28 C49.1787828,28 49.3222402,27.8750961 49.3513957,27.7038087 L53.9946397,0.420769915 C54.0320089,0.201277384 53.8692398,0 53.6544298,0 L46.988862,0 C46.821265,0 46.6778076,0.124838817 46.6486521,0.296126261" id="Fill-6"></path>
                <path d="M36.7279975,0.296126261 L35.010451,10.4983005 C34.9816103,10.6695879 34.8397012,10.7944267 34.6738511,10.7944267 L30.5261737,10.7944267 C30.3136202,10.7944267 30.152608,10.5931493 30.1895738,10.3735918 L31.8651926,0.420769915 C31.9021584,0.201277384 31.7411462,0 31.5285927,0 L24.9350304,0 C24.7691804,0 24.6272713,0.124838817 24.5984305,0.296126261 L20.0053025,27.579165 C19.9683366,27.7986576 20.1293488,28 20.3418403,28 L26.9354646,28 C27.1012527,28 27.2431617,27.8750961 27.2720025,27.7038087 L28.9900451,17.4988372 C29.0188859,17.3275497 29.160795,17.2027109 29.326583,17.2027109 L33.4743225,17.2027109 C33.686876,17.2027109 33.8478262,17.4039883 33.8108603,17.6234808 L32.1348074,27.579165 C32.0979036,27.7986576 32.2588538,28 32.4714073,28 L39.0649696,28 C39.2308196,28 39.3727287,27.8750961 39.4015695,27.7038087 L43.9946975,0.420769915 C44.0316634,0.201277384 43.8706512,0 43.6581597,0 L37.0645354,0 C36.8987473,0 36.7568383,0.124838817 36.7279975,0.296126261" id="Fill-9"></path>
            </g>
        </g>
    </g>
</svg>